<svg xmlns="http://www.w3.org/2000/svg" viewBox="270 330 470 240">
  <path d="M0 0 C27.02408784 -0.68199591 52.43119009 9.20595114 72.58984375 27.15625 C93.70292456 47.82577869 104.23711902 73.96406213 106.58984375 103.15625 C107.84603516 103.36193604 109.10222656 103.56762207 110.39648438 103.77954102 C135.61703862 107.92397747 160.73008795 112.17402378 185.58984375 118.15625 C186.62229218 118.40371979 186.62229218 118.40371979 187.67559814 118.65618896 C191.98586694 119.69150881 196.29071549 120.74647312 200.59008789 121.82617188 C201.94260357 122.16562177 203.2957767 122.50246503 204.6496582 122.83642578 C211.53323329 124.54450462 217.66559114 126.1862085 223.58984375 130.15625 C222.12699495 136.61716553 222.12699495 136.61716553 219.82617188 138.92626953 C216.96112137 140.50204731 215.71907595 140.22934091 212.55859375 139.5234375 C211.58664062 139.31299805 210.6146875 139.10255859 209.61328125 138.88574219 C208.61554688 138.64500977 207.6178125 138.40427734 206.58984375 138.15625 C205.65398437 137.93356445 204.718125 137.71087891 203.75390625 137.48144531 C200.85960411 136.77089815 197.97471961 136.02909293 195.08984375 135.28125 C185.62703296 132.87920195 176.16074974 130.68141027 166.58935547 128.76171875 C163.66720221 128.17186525 160.74760334 127.57024219 157.82824707 126.96672058 C129.55657806 121.13050478 101.37357201 116.39604581 72.65234375 113.40625 C71.62436676 113.2991571 70.59638977 113.19206421 69.53726196 113.08172607 C47.28434316 110.78591195 25.26837713 109.87921321 2.90234375 109.84375 C2.18666103 109.84230484 1.47097832 109.84085968 0.73360825 109.83937073 C-24.38214536 109.79848895 -49.17833264 110.89155464 -74.13427734 113.88415527 C-76.30620568 114.1438221 -78.47898452 114.3942346 -80.65234375 114.64160156 C-119.51161771 119.10474941 -158.32985329 126.75630414 -196.07788086 136.98608398 C-211.1934463 141.07147026 -211.1934463 141.07147026 -216.41015625 138.15625 C-217.88847885 135.19960481 -217.47048408 132.41395263 -217.41015625 129.15625 C-208.66333103 124.70109136 -199.39960679 122.67361464 -189.91015625 120.40625 C-189.0199881 120.19103699 -188.12981995 119.97582397 -187.212677 119.75408936 C-159.20547408 112.99811729 -130.87476675 107.59380979 -102.41015625 103.15625 C-102.25160156 101.90972656 -102.09304688 100.66320312 -101.9296875 99.37890625 C-97.7167346 67.92633684 -85.75824114 41.35397627 -60.67578125 20.9296875 C-42.57937927 7.84725677 -22.1605582 1.01537495 0 0 Z M-64.22265625 42.15625 C-65.30582991 43.47284365 -66.36828813 44.80673348 -67.41015625 46.15625 C-67.98121094 46.89101563 -68.55226563 47.62578125 -69.140625 48.3828125 C-80.39435196 63.63620842 -87.53534155 82.07702166 -87.41015625 101.15625 C-79.20040393 100.68306543 -71.00125347 100.15146548 -62.80859375 99.4375 C-43.33519278 97.74602121 -23.96188348 96.51098059 -4.41015625 96.15625 C-3.6202832 96.13965332 -2.83041016 96.12305664 -2.01660156 96.10595703 C2.52188805 96.01913189 7.05236227 96.05287451 11.58984375 96.15625 C12.92426514 96.18307861 12.92426514 96.18307861 14.28564453 96.21044922 C40.43755125 96.79444453 66.63228939 98.93053053 92.58984375 102.15625 C90.66049137 80.76059603 84.82059076 61.70971663 70.58984375 45.15625 C70.06003906 44.48335938 69.53023437 43.81046875 68.984375 43.1171875 C64.29397383 37.34610007 58.70618417 33.32333179 52.58984375 29.15625 C51.82414063 28.60839844 51.0584375 28.06054688 50.26953125 27.49609375 C15.14050651 2.88059434 -35.89061359 10.92159272 -64.22265625 42.15625 Z" fill="#D7D8D8" transform="translate(509.41015625,419.84375)"/>
  <path d="M0 0 C0.97975044 0.28930641 0.97975044 0.28930641 1.97929382 0.5844574 C3.35293742 0.99248 4.72392172 1.40955301 6.09222412 1.83514404 C8.06090777 2.44668012 10.03510374 3.03289343 12.01416016 3.60986328 C15.8349935 4.73086981 19.64659163 5.87935538 23.45703125 7.03515625 C24.74928186 7.4253525 26.04159951 7.81532677 27.33398438 8.20507812 C29.8108044 8.95258114 32.28630108 9.70448746 34.76025391 10.46142578 C36.89135537 11.09820419 39.03107135 11.70744183 41.18115234 12.27685547 C42.07012207 12.51549316 42.9590918 12.75413086 43.875 13 C44.63578857 13.19198975 45.39657715 13.38397949 46.18041992 13.58178711 C48.75525687 14.7496653 49.7492569 16.03434251 51.14453125 18.47265625 C50.81725852 24.79992898 50.81725852 24.79992898 48.14453125 27.47265625 C43.11443104 29.41855036 38.6920795 27.41600403 33.8203125 25.83203125 C32.91887009 25.54918274 32.01742767 25.26633423 31.08866882 24.97491455 C28.20788234 24.06838151 25.33249829 23.14590729 22.45703125 22.22265625 C20.54135813 21.61610469 18.62534546 21.01062444 16.70898438 20.40625 C13.15577088 19.28504772 9.60505606 18.15645659 6.0559082 17.02246094 C1.80705652 15.66502078 -2.46655215 14.40869354 -6.75666809 13.18829346 C-9.72936956 12.17467848 -11.26253803 11.20339463 -12.85546875 8.47265625 C-12.91796875 4.91015625 -12.91796875 4.91015625 -11.85546875 1.47265625 C-7.62913765 -2.10599456 -5.11997458 -1.56203199 0 0 Z" fill="#D2D3D4" transform="translate(352.85546875,450.52734375)"/>
  <path d="M0 0 C3.61473974 2.23769603 5.9376956 5.10409753 8.58325195 8.39160156 C10.10618335 10.12054729 11.7226296 11.55767495 13.48046875 13.046875 C18.82128938 17.67282578 23.92994084 22.51779432 29 27.4375 C29.4842041 27.8900415 29.9684082 28.34258301 30.46728516 28.80883789 C39.60704682 37.36263894 39.60704682 37.36263894 39.8125 42.53515625 C39 46 39 46 36 48 C32.25757582 48.34022038 29.8713789 48.49154707 26.5625 46.625 C25 45 25 45 25 43 C24.40583786 42.73082764 23.81167572 42.46165527 23.19950867 42.18432617 C20.99780008 40.99881545 19.56558338 39.81331051 17.80786133 38.05078125 C17.21076859 37.45676514 16.61367584 36.86274902 15.99848938 36.25073242 C15.3660582 35.61111572 14.73362701 34.97149902 14.08203125 34.3125 C13.42418137 33.65419189 12.76633148 32.99588379 12.08854675 32.31762695 C10.70192008 30.92798406 9.31771978 29.53591638 7.93579102 28.14160156 C5.81514383 26.00266663 3.68657214 23.87187332 1.55664062 21.7421875 C0.210464 20.39109661 -1.13525506 19.03954964 -2.48046875 17.6875 C-3.11897263 17.0478833 -3.7574765 16.4082666 -4.41532898 15.74926758 C-5.00296524 15.15525146 -5.5906015 14.56123535 -6.19604492 13.94921875 C-6.71470627 13.42674561 -7.23336761 12.90427246 -7.76774597 12.3659668 C-9.71160491 10.21117833 -9.99991346 9.00101688 -10.25 6.0625 C-10 3 -10 3 -8.9375 1.125 C-5.8385295 -0.67440223 -3.50712967 -0.42327427 0 0 Z" fill="#DBDBDB" transform="translate(410,376)"/>
  <path d="M0 0 C1.875 1.625 1.875 1.625 3 4 C3.10892817 9.11962415 1.9655605 11.43823207 -1.52734375 15.18359375 C-2.98212087 16.6172297 -4.45277454 18.03490283 -5.9375 19.4375 C-6.67935547 20.16904297 -7.42121094 20.90058594 -8.18554688 21.65429688 C-13.69097222 27 -13.69097222 27 -16 27 C-16.25136719 27.58910156 -16.50273438 28.17820312 -16.76171875 28.78515625 C-18.15455401 31.27644202 -19.6208572 32.62300414 -21.8125 34.4375 C-25.98650241 37.97108688 -29.84093092 41.62741819 -33.375 45.8125 C-36 48 -36 48 -39.625 48.5 C-43 48 -43 48 -44.875 46.75 C-46.20345668 44.68351183 -46.85463211 43.47125406 -47 41 C-44.52040996 35.74481246 -40.25465727 31.96672882 -36.19140625 27.92578125 C-35.42827621 27.16073776 -34.66514618 26.39569427 -33.87889099 25.60746765 C-32.26831735 23.99553595 -30.65522694 22.38611547 -29.03979492 20.77905273 C-26.56782027 18.3177972 -24.10670433 15.84604592 -21.64648438 13.37304688 C-20.078766 11.80664987 -18.51042745 10.24087325 -16.94140625 8.67578125 C-16.20588028 7.93620682 -15.47035431 7.19663239 -14.71253967 6.43464661 C-14.02179855 5.75020981 -13.33105743 5.06577301 -12.61938477 4.3605957 C-11.7136245 3.45722221 -11.7136245 3.45722221 -10.78956604 2.53559875 C-7.1643331 -0.57515719 -4.61992074 -1.65843309 0 0 Z" fill="#D3D4D5" transform="translate(620,376)"/>
  <path d="M0 0 C3.1875 0.3125 3.1875 0.3125 5.35536194 1.9853363 C7.60652012 4.84473523 7.68859575 6.25440266 7.68920898 9.85961914 C7.69858994 10.97079605 7.70797089 12.08197296 7.71763611 13.2268219 C7.70640213 14.42169724 7.69516815 15.61657257 7.68359375 16.84765625 C7.68504898 18.07785995 7.68650421 19.30806366 7.68800354 20.57554626 C7.6863438 23.17546966 7.67477436 25.7754028 7.65405273 28.37524414 C7.63466481 31.04442365 7.62434071 33.71115002 7.63354492 36.38012695 C7.64611106 40.22370554 7.63748373 44.06660245 7.62109375 47.91015625 C7.62402939 49.10705582 7.62696503 50.30395538 7.62998962 51.53712463 C7.61096336 53.19916176 7.61096336 53.19916176 7.59155273 54.89477539 C7.58614975 55.87088272 7.58074677 56.84699005 7.57518005 57.85267639 C7.12229542 60.72622199 6.48341775 61.58688721 4.1875 63.3125 C1.8125 64.25 1.8125 64.25 -0.8125 64.3125 C-4.13782569 62.19638365 -5.55493422 61.08519733 -6.8125 57.3125 C-6.91459712 55.66716572 -6.96090405 54.01807869 -6.97363281 52.36962891 C-6.98324036 51.36493561 -6.9928479 50.36024231 -7.00274658 49.32510376 C-7.00699646 48.24071014 -7.01124634 47.15631653 -7.015625 46.0390625 C-7.02132507 44.92316742 -7.02702515 43.80727234 -7.03289795 42.65756226 C-7.04234834 40.29548084 -7.04888208 37.93338624 -7.05273438 35.57128906 C-7.06244289 31.95875049 -7.09346782 28.34678009 -7.125 24.734375 C-7.13152981 22.44010755 -7.13678037 20.14583602 -7.140625 17.8515625 C-7.1529718 16.77121735 -7.1653186 15.69087219 -7.17803955 14.57778931 C-7.1371201 0.79301334 -7.1371201 0.79301334 0 0 Z" fill="#CFD0D1" transform="translate(511.8125,340.6875)"/>
  <path d="M0 0 C3 2 3 2 3.875 4.3125 C4.04862187 8.04537016 3.5161006 9.19634504 1 12 C-6.05790406 15.48693027 -13.82251964 17.64760489 -21.3125 20 C-22.41319824 20.34740234 -23.51389648 20.69480469 -24.64794922 21.05273438 C-26.80571484 21.7331598 -28.96390109 22.41225315 -31.12255859 23.08984375 C-33.51095581 23.84531166 -35.89199882 24.61747838 -38.26953125 25.40625 C-48.85663647 28.85722725 -48.85663647 28.85722725 -54 28 C-56.9375 26 -56.9375 26 -59 24 C-58.875 21.25 -58.875 21.25 -58 18 C-53.51839218 14.39507806 -49.03278156 12.82674571 -43.6015625 11.30859375 C-42.80777191 11.07721207 -42.01398132 10.84583038 -41.19613647 10.60743713 C-38.67512852 9.87435272 -36.15040237 9.15528406 -33.625 8.4375 C-31.10754261 7.71363432 -28.59099214 6.98678261 -26.07528687 6.2568512 C-24.515938 5.80528519 -22.95547473 5.35754227 -21.39370728 4.91441345 C-17.75905812 3.87014944 -14.22221096 2.73138813 -10.69677734 1.35961914 C-6.80822579 -0.07053167 -4.10547503 -0.40249755 0 0 Z" fill="#CFD0D0" transform="translate(678,450)"/>
  <path d="M0 0 C2.9375 2 2.9375 2 5 4 C4.67 5.32 4.34 6.64 4 8 C3.46375 7.34 2.9275 6.68 2.375 6 C0.10041408 3.68975201 0.10041408 3.68975201 -3.25 3.75 C-4.1575 3.8325 -5.065 3.915 -6 4 C-6.33 4.66 -6.66 5.32 -7 6 C-3.90596733 11.04638079 -0.25686002 15.00682888 3.953125 19.1484375 C4.61334656 19.80582916 5.27356812 20.46322083 5.95379639 21.14053345 C8.04785262 23.22346262 10.14878065 25.29929958 12.25 27.375 C13.67754421 28.79250476 15.10463247 30.21046886 16.53125 31.62890625 C20.01557984 35.09127494 23.50608668 38.54730344 27 42 C25.21098328 42.67451477 25.21098328 42.67451477 23 43 C21.31086731 41.91886902 21.31086731 41.91886902 19.62426758 40.20776367 C18.98713333 39.57347946 18.34999908 38.93919525 17.69355774 38.28569031 C17.017379 37.58684219 16.34120026 36.88799408 15.64453125 36.16796875 C14.94228928 35.46102371 14.2400473 34.75407867 13.51652527 34.02571106 C11.26994201 31.75772478 9.04156457 29.47269296 6.8125 27.1875 C5.29861968 25.6571205 3.78365859 24.12780931 2.26757812 22.59960938 C-0.49869121 19.79932151 -3.26449947 16.99869457 -6.01245117 14.18041992 C-6.84373787 13.32984261 -6.84373787 13.32984261 -7.69181824 12.46208191 C-9.67104898 10.25000592 -9.9940173 9.07029675 -10.25 6.0625 C-10 3 -10 3 -8.9375 1.125 C-5.8385295 -0.67440223 -3.50712967 -0.42327427 0 0 Z" fill="#BCBEBF" transform="translate(410,376)"/>
  <path d="M0 0 C3.98374202 0.02092019 7.96751216 0.02968955 11.95129395 0.03967285 C19.68769496 0.06075504 27.42396312 0.09461993 35.16027832 0.1373291 C35.16027832 0.4673291 35.16027832 0.7973291 35.16027832 1.1373291 C36.81027832 1.4673291 38.46027832 1.7973291 40.16027832 2.1373291 C40.16027832 2.4673291 40.16027832 2.7973291 40.16027832 3.1373291 C6.83027832 3.1373291 -26.49972168 3.1373291 -60.83972168 3.1373291 C-60.83972168 2.8073291 -60.83972168 2.4773291 -60.83972168 2.1373291 C-40.51692385 0.19912594 -20.39387082 -0.11896157 0 0 Z" fill="#747477" transform="translate(521.8397216796875,526.8626708984375)"/>
  <path d="M0 0 C-3.07897623 1.73018136 -5.77549455 2.44010563 -9.2578125 2.97265625 C-10.33716064 3.14531006 -11.41650879 3.31796387 -12.52856445 3.49584961 C-13.71538818 3.68284424 -14.90221191 3.86983887 -16.125 4.0625 C-28.9304015 6.17738759 -41.62441781 8.70796109 -54.3125 11.4375 C-55.21439056 11.63142334 -56.11628113 11.82534668 -57.04550171 12.02514648 C-68.86556263 14.57715829 -80.64099737 17.25401942 -92.33911133 20.32397461 C-93.19529053 20.54835205 -94.05146973 20.77272949 -94.93359375 21.00390625 C-95.65603271 21.19799072 -96.37847168 21.3920752 -97.12280273 21.59204102 C-99 22 -99 22 -102 22 C-102 22.66 -102 23.32 -102 24 C-103.98 24 -105.96 24 -108 24 C-107 22 -107 22 -103.984375 20.95703125 C-102.57569764 20.56537717 -101.16387729 20.18494573 -99.75 19.8125 C-98.95408447 19.59891846 -98.15816895 19.38533691 -97.33813477 19.1652832 C-94.56213558 18.42990019 -91.78174871 17.71331622 -89 17 C-87.99888184 16.74057617 -86.99776367 16.48115234 -85.96630859 16.21386719 C-70.22183684 12.16812664 -54.3913267 8.7860081 -38.4375 5.6875 C-37.11804886 5.4312233 -37.11804886 5.4312233 -35.77194214 5.16976929 C-7.32891935 -0.3331327 -7.32891935 -0.3331327 0 0 Z" fill="#7B7C7D" transform="translate(402,525)"/>
  <path d="M0 0 C-0.66 0.33 -1.32 0.66 -2 1 C-4.11391121 0.17891867 -6.19210348 -0.73468468 -8.25 -1.6875 C-19.09097585 -6.55149583 -30.42086906 -10.12035754 -42.39453125 -10.1328125 C-43.59787109 -10.13410156 -44.80121094 -10.13539063 -46.04101562 -10.13671875 C-47.28560547 -10.13285156 -48.53019531 -10.12898438 -49.8125 -10.125 C-51.66198242 -10.13080078 -51.66198242 -10.13080078 -53.54882812 -10.13671875 C-60.11818541 -10.12970395 -66.48949912 -9.8868358 -73 -9 C-73 -8.34 -73 -7.68 -73 -7 C-75.97 -7.495 -75.97 -7.495 -79 -8 C-62.81532582 -24.18467418 -16.71914946 -10.05320286 0 0 Z" fill="#8D8F90" transform="translate(562,433)"/>
  <path d="M0 0 C0.33 0 0.66 0 1 0 C1.33 17.82 1.66 35.64 2 54 C3.65 54.33 5.3 54.66 7 55 C8.8354799 53.66621425 8.8354799 53.66621425 10 52 C9.125 55.875 9.125 55.875 8 57 C5.26096518 57.28831945 3.63502366 57.45788402 1.35722351 55.81547546 C-0.48572956 53.35026907 -0.36198444 51.76377498 -0.34057617 48.70239258 C-0.34034958 47.62149857 -0.34012299 46.54060455 -0.33988953 45.42695618 C-0.32440567 44.26125595 -0.30892181 43.09555573 -0.29296875 41.89453125 C-0.28872391 40.70018967 -0.28447906 39.50584808 -0.28010559 38.27531433 C-0.26328959 34.45414856 -0.22563093 30.63350684 -0.1875 26.8125 C-0.17245699 24.22461698 -0.15876792 21.63672571 -0.14648438 19.04882812 C-0.11337645 12.69903942 -0.06314762 6.34955714 0 0 Z" fill="#FEFEFE" transform="translate(507,346)"/>
  <path d="M0 0 C8.48054308 3.99192592 14.73587165 11.39625905 20 19 C20 19.99 20 20.98 20 22 C19.61328125 21.51789063 19.2265625 21.03578125 18.828125 20.5390625 C18.04695312 19.59160156 18.04695312 19.59160156 17.25 18.625 C16.73953125 17.99851562 16.2290625 17.37203125 15.703125 16.7265625 C14.09340775 14.90853821 14.09340775 14.90853821 11.94921875 13.9765625 C9.70238085 12.85089221 8.92096238 11.83704948 7.5625 9.75 C5.23457517 6.30149023 2.70102447 3.16405724 0 0 Z" fill="#A0A2A3" transform="translate(574,442)"/>
  <path d="M0 0 C-6.2534035 2.5957524 -12.31816637 3.9559635 -19 5 C-19 5.66 -19 6.32 -19 7 C-20.98 7 -22.96 7 -25 7 C-24 5 -24 5 -22.29760742 4.32983398 C-21.57420166 4.13719971 -20.8507959 3.94456543 -20.10546875 3.74609375 C-18.91920898 3.42415039 -18.91920898 3.42415039 -17.70898438 3.09570312 C-16.87689453 2.87849609 -16.04480469 2.66128906 -15.1875 2.4375 C-14.36701172 2.21642578 -13.54652344 1.99535156 -12.70117188 1.76757812 C-10.46983495 1.16857365 -8.23671569 0.57857354 -6 0 C-4.93906128 -0.31312134 -4.93906128 -0.31312134 -3.85668945 -0.63256836 C-2 -1 -2 -1 0 0 Z" fill="#858687" transform="translate(319,542)"/>
  <path d="M0 0 C-6.23152326 3.39149275 -13.07611016 3.12364089 -20 3 C-20.33 2.34 -20.66 1.68 -21 1 C-13.65485589 -0.50382815 -7.4189942 -1.23649903 0 0 Z" fill="#B6B6B7" transform="translate(407,536)"/>
  <path d="M0 0 C2.14762184 3.22143276 2.561068 4.2595467 2 8 C0.1875 9.875 0.1875 9.875 -2 11 C-2.99 10.67 -3.98 10.34 -5 10 C-4.360625 9.79375 -3.72125 9.5875 -3.0625 9.375 C-0.65074923 8.10461791 -0.65074923 8.10461791 -0.25 4.875 C-0.1675 3.92625 -0.085 2.9775 0 2 C-3.3 2.33 -6.6 2.66 -10 3 C-6.98409514 -0.01590486 -4.13765554 -0.42437493 0 0 Z" fill="#F4F5F5" transform="translate(678,451)"/>
  <path d="M0 0 C0 0.33 0 0.66 0 1 C-9.405 1.99 -9.405 1.99 -19 3 C-19 3.66 -19 4.32 -19 5 C-21.97 4.505 -21.97 4.505 -25 4 C-19.18633134 -1.81366866 -7.56645777 -0.21347373 0 0 Z" fill="#838586" transform="translate(508,421)"/>
  <path d="M0 0 C-0.96421875 0.47050781 -1.9284375 0.94101562 -2.921875 1.42578125 C-4.19802296 2.05447179 -5.47405874 2.68339007 -6.75 3.3125 C-7.70132812 3.7755957 -7.70132812 3.7755957 -8.671875 4.24804688 C-12.03147912 5.910351 -15.09858921 7.61879165 -18 10 C-18.66 9.34 -19.32 8.68 -20 8 C-4.58389753 -1.41418115 -4.58389753 -1.41418115 0 0 Z" fill="#F5F6F6" transform="translate(476,430)"/>
  <path d="M0 0 C1.66362417 0.34820041 3.32995171 0.68404492 5 1 C5 1.33 5 1.66 5 2 C-1.27 2 -7.54 2 -14 2 C-9.21904213 -0.39047894 -5.18781778 -1.72927259 0 0 Z" fill="#919293" transform="translate(557,528)"/>
  <path d="M0 0 C6.27 0 12.54 0 19 0 C17.68 0.33 16.36 0.66 15 1 C15 1.66 15 2.32 15 3 C13.02 3 11.04 3 9 3 C9 2.67 9 2.34 9 2 C6.03 1.67 3.06 1.34 0 1 C0 0.67 0 0.34 0 0 Z" fill="#E2E4E3" transform="translate(522,525)"/>
  <path d="M0 0 C4.67105792 1.55701931 8.08705685 4.08447373 12 7 C7.39537307 7 5.76334669 6.69395154 2.25 3.5 C0 1 0 1 0 0 Z" fill="#A3A5A7" transform="translate(562,434)"/>
  <path d="M0 0 C0.66 0.33 1.32 0.66 2 1 C1.79375 1.94875 1.5875 2.8975 1.375 3.875 C1.25125 4.90625 1.1275 5.9375 1 7 C1.66 7.66 2.32 8.32 3 9 C-0.875 8.125 -0.875 8.125 -2 7 C-2.1875 4.5625 -2.1875 4.5625 -2 2 C-1.34 1.34 -0.68 0.68 0 0 Z" fill="#F1F2F2" transform="translate(623,467)"/>
  <path d="M0 0 C0.33 0.66 0.66 1.32 1 2 C3.3727086 2.92466753 3.3727086 2.92466753 6 3 C7.8354799 1.66621425 7.8354799 1.66621425 9 0 C8.125 3.875 8.125 3.875 7 5 C4.625 5.3125 4.625 5.3125 2 5 C0.1875 3 0.1875 3 -1 1 C-0.67 0.67 -0.34 0.34 0 0 Z" fill="#F7F8F8" transform="translate(508,398)"/>
  <path d="M0 0 C2.5 1.6875 2.5 1.6875 5 4 C5.3125 6.75 5.3125 6.75 5 9 C4.01 9.495 4.01 9.495 3 10 C2.690625 8.906875 2.38125 7.81375 2.0625 6.6875 C1.41662103 4.44592006 0.7376883 2.2130649 0 0 Z" fill="#F5F6F6" transform="translate(443,411)"/>
  <path d="M0 0 C0.33 0 0.66 0 1 0 C1.25 2.3125 1.25 2.3125 1 5 C-1 6.8125 -1 6.8125 -3 8 C-2.45276317 4.62537285 -1.9451 2.91765 0 0 Z" fill="#EFF0EF" transform="translate(422,475)"/>
  <path d="M0 0 C4 1 4 1 4 1 Z" fill="#D7D8D8" transform="translate(676,550)"/>
  <path d="M0 0 C0.66 0.33 1.32 0.66 2 1 C1.01 1 0.02 1 -1 1 C-0.67 0.67 -0.34 0.34 0 0 Z" fill="#DFDFDE" transform="translate(635,477)"/>
  <path d="M0 0 C4 1 4 1 4 1 Z" fill="#DDDEE0" transform="translate(363,470)"/>
  <path d="M0 0 C0.66 0 1.32 0 2 0 C1.67 0.66 1.34 1.32 1 2 C0.67 1.34 0.34 0.68 0 0 Z" fill="#D6D6D6" transform="translate(348,549)"/>
  <path d="M0 0 C3 1 3 1 3 1 Z" fill="#D5D5D6" transform="translate(580,534)"/>
  <path d="M0 0 C0.66 0 1.32 0 2 0 C1.67 0.66 1.34 1.32 1 2 C0.67 1.34 0.34 0.68 0 0 Z" fill="#E2E2E4" transform="translate(408,499)"/>
  <path d="M0 0 C3 1 3 1 3 1 Z" fill="#E4E4E5" transform="translate(496,419)"/>
  <path d="M0 0 C2 1 2 1 2 1 Z" fill="#D2D2D3" transform="translate(344,550)"/>
  <path d="M0 0 C2 1 2 1 2 1 Z" fill="#DBDCDD" transform="translate(671,549)"/>
  <path d="M0 0 C2 1 2 1 2 1 Z" fill="#DADBDC" transform="translate(321,538)"/>
  <path d="M0 0 C2 1 2 1 2 1 Z" fill="#D9DADB" transform="translate(693,536)"/>
  <path d="M0 0 C2 1 2 1 2 1 Z" fill="#D6D5D7" transform="translate(449,533)"/>
  <path d="M0 0 C2 1 2 1 2 1 Z" fill="#DEE0E0" transform="translate(385,525)"/>
  <path d="M0 0 C2 1 2 1 2 1 Z" fill="#E0E0E3" transform="translate(440,517)"/>
  <path d="M0 0 C2 1 2 1 2 1 Z" fill="#E8E8E8" transform="translate(593,492)"/>
  <path d="M0 0 C2 1 2 1 2 1 Z" fill="#E4E4E6" transform="translate(418,474)"/>
  <path d="M0 0 C2 1 2 1 2 1 Z" fill="#DEDEDF" transform="translate(489,437)"/>
  <path d="M0 0 C2 1 2 1 2 1 Z" fill="#DFE0E0" transform="translate(436,400)"/>
  <path d="M0 0 C2 1 2 1 2 1 Z" fill="#DDDCDF" transform="translate(409,397)"/>
</svg>